<svg width="805" height="530" viewBox="0 0 805 530" fill="none" xmlns="http://www.w3.org/2000/svg">
<g filter="url(#filter0_d_198_322)">
<path d="M228.244 393.229V403.146L262.647 416.246L263.749 415.389L265.463 408.655L236.814 398.126V397.514L265.34 386.74L265.952 385.761L263.259 378.782L228.979 392.127L228.244 393.229ZM310.549 362.132C316.262 362.213 321.404 363.438 325.975 365.805L323.771 376.211L322.792 376.578C318.955 373.803 314.67 372.416 309.936 372.416C300.224 372.416 295.367 378.823 295.367 391.637C295.367 405.431 300.346 412.369 310.304 412.45C315.201 412.45 319.731 411.104 323.893 408.41L324.995 409.022L324.016 419.551C319.364 421.673 314.466 422.775 309.324 422.857C300.509 422.857 293.776 420.286 289.123 415.144C284.553 410.002 282.267 402.574 282.267 392.862C282.267 383.149 284.716 375.599 289.613 370.212C294.51 364.825 301.489 362.132 310.549 362.132ZM349.925 378.537C356.454 378.537 361.351 380.374 364.616 384.047C367.881 387.72 369.513 393.147 369.513 400.33C369.513 407.512 367.718 413.103 364.127 417.103C360.617 421.021 355.638 422.979 349.19 422.979C342.824 422.979 337.967 421.143 334.621 417.47C331.356 413.716 329.724 408.247 329.724 401.064C329.724 393.882 331.479 388.332 334.988 384.414C338.498 380.496 343.477 378.537 349.925 378.537ZM349.557 386.74C346.619 386.74 344.497 387.76 343.191 389.801C341.885 391.76 341.232 395.229 341.232 400.207C341.232 405.186 341.885 408.859 343.191 411.226C344.497 413.511 346.66 414.654 349.68 414.654C352.7 414.654 354.863 413.716 356.169 411.838C357.475 409.961 358.127 406.533 358.127 401.554C358.127 396.575 357.434 392.862 356.046 390.413C354.659 387.964 352.496 386.74 349.557 386.74ZM413.448 410.981C413.53 412.042 413.693 412.777 413.938 413.185C414.183 413.511 414.673 413.675 415.407 413.675C416.142 413.675 416.999 413.552 417.978 413.307L418.835 414.042L417.733 420.408C415.775 421.633 413.53 422.408 411 422.735C407.082 422.408 404.593 420.286 403.532 416.368H402.797C399.859 419.143 396.798 421.225 393.615 422.612C387.575 422.612 382.922 420.735 379.658 416.98C376.393 413.144 374.76 407.716 374.76 400.697C374.76 393.678 376.638 388.25 380.392 384.414C384.228 380.578 389.493 378.66 396.186 378.66C397.981 378.66 399.94 378.823 402.062 379.15L401.94 358.581L414.06 357.602L413.203 403.268L413.448 410.981ZM386.146 398.738C386.146 408.288 389.044 413.063 394.839 413.063C397.451 413.063 399.94 411.797 402.307 409.267L402.43 404.248L402.185 388.454C399.818 387.393 397.573 386.863 395.451 386.863C389.248 386.863 386.146 390.821 386.146 398.738ZM434.12 402.289C434.61 410.043 438.364 413.92 445.384 413.92C449.383 413.92 453.505 412.777 457.749 410.492L458.729 411.226L457.137 420.164C452.893 421.959 448.608 422.898 444.282 422.979C437.507 422.979 432.243 421.021 428.488 417.103C424.734 413.185 422.857 407.798 422.857 400.942C422.857 394.004 424.734 388.577 428.488 384.659C432.324 380.659 437.181 378.66 443.057 378.66C448.934 378.66 453.301 380.17 456.157 383.19C459.096 386.128 460.565 390.209 460.565 395.433C460.565 397.065 460.443 398.738 460.198 400.452L458.361 402.166L434.12 402.289ZM443.425 386.618C441.058 386.618 439.058 387.393 437.426 388.944C435.875 390.495 434.855 392.698 434.365 395.555L449.791 395.065L450.036 394.086C449.954 389.107 447.751 386.618 443.425 386.618ZM556.717 422H524.763L525.498 404.37L524.763 362.989H537.496L536.761 403.268L537.006 411.716H556.84L557.574 412.695L556.717 422ZM569.686 358.459C571.645 358.459 573.154 359.03 574.216 360.173C575.277 361.234 575.807 362.785 575.807 364.825C575.807 366.784 575.236 368.376 574.093 369.6C572.95 370.824 571.359 371.436 569.318 371.436C567.359 371.436 565.809 370.906 564.666 369.845C563.605 368.702 563.074 367.151 563.074 365.192C563.074 363.234 563.687 361.642 564.911 360.418C566.135 359.112 567.727 358.459 569.686 358.459ZM575.44 422H563.197L563.809 404.37L563.319 380.129L575.562 379.15L574.705 403.268L575.44 422ZM612.552 395.433C612.552 390.944 610.634 388.699 606.798 388.699C604.023 388.699 601.085 390.005 597.983 392.617V403.268L598.595 422H586.352L586.964 404.37L586.475 380.129L598.105 379.15V385.393H598.718C602.227 382.292 605.9 380.088 609.736 378.782C614.389 378.782 617.898 379.843 620.265 381.965C622.714 384.088 623.897 387.107 623.816 391.025L623.571 403.268L624.061 422H611.818L612.552 395.433ZM675.718 385.149C674.086 385.557 671.719 386.006 668.617 386.495L668.372 386.863C669.27 388.658 669.719 390.699 669.719 392.984C669.719 397.555 668.046 401.228 664.699 404.003C661.435 406.696 656.945 408.043 651.232 408.043C649.518 408.043 647.763 407.88 645.968 407.553C645.07 408.451 644.621 409.267 644.621 410.002C644.621 411.063 645.315 411.838 646.702 412.328C648.171 412.736 650.62 413.144 654.048 413.552C657.476 413.96 660.374 414.491 662.74 415.144C665.107 415.715 667.148 416.776 668.862 418.327C670.658 419.878 671.555 422.041 671.555 424.816C671.555 427.673 670.658 430.244 668.862 432.529C665.107 437.426 659.027 439.875 650.62 439.875C645.07 439.875 640.785 438.732 637.765 436.447C634.745 434.161 633.235 431.182 633.235 427.509C635.112 424.897 637.683 422.612 640.948 420.653V420.164C636.54 418.531 634.337 415.756 634.337 411.838C635.969 409.879 638.05 408.002 640.581 406.207V405.839C636.092 403.391 633.847 399.636 633.847 394.576C633.847 389.434 635.479 385.516 638.744 382.822C642.091 380.047 646.621 378.66 652.334 378.66C655.68 378.66 658.659 379.231 661.271 380.374C665.679 379.558 670.168 378.333 674.739 376.701L675.718 377.558V385.149ZM659.19 393.229C659.19 388.577 656.701 386.25 651.722 386.25C646.825 386.25 644.376 388.617 644.376 393.351C644.376 398.33 646.784 400.779 651.599 400.697C656.66 400.779 659.19 398.289 659.19 393.229ZM661.394 427.142C661.394 425.428 660.496 424.245 658.7 423.592C656.905 423.02 654.701 422.571 652.089 422.245C649.559 422 648.049 421.796 647.559 421.633C644.702 423.592 643.274 425.428 643.274 427.142C643.274 428.938 644.009 430.325 645.478 431.305C646.947 432.284 649.069 432.774 651.844 432.774C654.701 432.774 656.986 432.243 658.7 431.182C660.496 430.203 661.394 428.856 661.394 427.142ZM697.765 378.537C704.295 378.537 709.192 380.374 712.457 384.047C715.722 387.72 717.354 393.147 717.354 400.33C717.354 407.512 715.559 413.103 711.967 417.103C708.458 421.021 703.479 422.979 697.031 422.979C690.665 422.979 685.808 421.143 682.462 417.47C679.197 413.716 677.565 408.247 677.565 401.064C677.565 393.882 679.319 388.332 682.829 384.414C686.339 380.496 691.318 378.537 697.765 378.537ZM697.398 386.74C694.46 386.74 692.338 387.76 691.032 389.801C689.726 391.76 689.073 395.229 689.073 400.207C689.073 405.186 689.726 408.859 691.032 411.226C692.338 413.511 694.501 414.654 697.521 414.654C700.541 414.654 702.703 413.716 704.009 411.838C705.315 409.961 705.968 406.533 705.968 401.554C705.968 396.575 705.275 392.862 703.887 390.413C702.499 387.964 700.337 386.74 697.398 386.74ZM742.779 432.529H734.331L733.596 431.55L752.451 359.561H760.776L761.755 360.785L742.779 432.529ZM800.58 393.229V403.146L766.177 416.246L765.075 415.389L763.361 408.655L792.01 398.126V397.514L763.484 386.74L762.872 385.761L765.565 378.782L799.845 392.127L800.58 393.229Z" fill="white"/>
<path d="M228.244 393.229L227.412 392.674L227.244 392.926V393.229H228.244ZM228.244 403.146H227.244V403.835L227.888 404.08L228.244 403.146ZM262.647 416.246L262.291 417.18L262.817 417.38L263.261 417.035L262.647 416.246ZM263.749 415.389L264.363 416.178L264.633 415.968L264.718 415.635L263.749 415.389ZM265.463 408.655L266.432 408.902L266.654 408.028L265.808 407.716L265.463 408.655ZM236.814 398.126H235.814V398.824L236.469 399.065L236.814 398.126ZM236.814 397.514L236.461 396.578L235.814 396.823V397.514H236.814ZM265.34 386.74L265.694 387.676L266.009 387.556L266.188 387.27L265.34 386.74ZM265.952 385.761L266.8 386.291L267.065 385.867L266.885 385.401L265.952 385.761ZM263.259 378.782L264.192 378.422L263.831 377.487L262.896 377.85L263.259 378.782ZM228.979 392.127L228.616 391.195L228.322 391.31L228.146 391.572L228.979 392.127ZM227.244 393.229V403.146H229.244V393.229H227.244ZM227.888 404.08L262.291 417.18L263.003 415.311L228.6 402.211L227.888 404.08ZM263.261 417.035L264.363 416.178L263.135 414.599L262.033 415.456L263.261 417.035ZM264.718 415.635L266.432 408.902L264.494 408.408L262.78 415.142L264.718 415.635ZM265.808 407.716L237.159 397.188L236.469 399.065L265.118 409.594L265.808 407.716ZM237.814 398.126V397.514H235.814V398.126H237.814ZM237.167 398.449L265.694 387.676L264.987 385.805L236.461 396.578L237.167 398.449ZM266.188 387.27L266.8 386.291L265.104 385.231L264.492 386.21L266.188 387.27ZM266.885 385.401L264.192 378.422L262.326 379.142L265.019 386.121L266.885 385.401ZM262.896 377.85L228.616 391.195L229.341 393.059L263.622 379.714L262.896 377.85ZM228.146 391.572L227.412 392.674L229.076 393.784L229.811 392.682L228.146 391.572ZM310.549 362.132L310.563 361.132L310.556 361.132H310.549V362.132ZM325.975 365.805L326.953 366.012L327.111 365.267L326.435 364.917L325.975 365.805ZM323.771 376.211L324.122 377.148L324.636 376.955L324.749 376.418L323.771 376.211ZM322.792 376.578L322.205 377.389L322.64 377.703L323.143 377.515L322.792 376.578ZM310.304 412.45L310.296 413.45H310.304V412.45ZM323.893 408.41L324.379 407.536L323.854 407.245L323.35 407.571L323.893 408.41ZM324.995 409.022L325.991 409.115L326.052 408.465L325.481 408.148L324.995 409.022ZM324.016 419.551L324.431 420.461L324.958 420.221L325.012 419.644L324.016 419.551ZM309.324 422.857V423.857H309.332L309.34 423.857L309.324 422.857ZM289.123 415.144L288.376 415.808L288.382 415.815L289.123 415.144ZM289.613 370.212L288.873 369.539L288.873 369.539L289.613 370.212ZM310.534 363.132C316.11 363.211 321.097 364.405 325.515 366.693L326.435 364.917C321.712 362.471 316.414 361.215 310.563 361.132L310.534 363.132ZM324.996 365.597L322.793 376.004L324.749 376.418L326.953 366.012L324.996 365.597ZM323.42 375.275L322.44 375.642L323.143 377.515L324.122 377.148L323.42 375.275ZM323.378 375.768C319.371 372.87 314.881 371.416 309.936 371.416V373.416C314.46 373.416 318.54 374.737 322.205 377.389L323.378 375.768ZM309.936 371.416C304.84 371.416 300.87 373.111 298.213 376.617C295.595 380.071 294.367 385.132 294.367 391.637H296.367C296.367 385.328 297.568 380.779 299.807 377.825C302.006 374.924 305.32 373.416 309.936 373.416V371.416ZM294.367 391.637C294.367 398.625 295.623 404.054 298.289 407.769C300.997 411.543 305.058 413.407 310.296 413.45L310.312 411.45C305.592 411.412 302.184 409.767 299.914 406.603C297.601 403.38 296.367 398.443 296.367 391.637H294.367ZM310.304 413.45C315.396 413.45 320.114 412.047 324.437 409.25L323.35 407.571C319.347 410.161 315.006 411.45 310.304 411.45V413.45ZM323.408 409.284L324.51 409.897L325.481 408.148L324.379 407.536L323.408 409.284ZM324 408.93L323.02 419.459L325.012 419.644L325.991 409.115L324 408.93ZM323.601 418.642C319.075 420.706 314.313 421.778 309.308 421.857L309.34 423.857C314.619 423.773 319.652 422.641 324.431 420.461L323.601 418.642ZM309.324 421.857C300.71 421.857 294.279 419.352 289.865 414.473L288.382 415.815C293.272 421.22 300.309 423.857 309.324 423.857V421.857ZM289.871 414.48C285.519 409.584 283.267 402.43 283.267 392.862H281.267C281.267 402.719 283.586 410.42 288.376 415.808L289.871 414.48ZM283.267 392.862C283.267 383.313 285.673 376.033 290.353 370.885L288.873 369.539C283.759 375.165 281.267 382.985 281.267 392.862H283.267ZM290.353 370.885C295.016 365.755 301.697 363.132 310.549 363.132V361.132C301.281 361.132 294.005 363.895 288.873 369.539L290.353 370.885ZM364.616 384.047L365.364 383.382L365.364 383.382L364.616 384.047ZM364.127 417.103L363.382 416.435L363.382 416.436L364.127 417.103ZM334.621 417.47L333.866 418.126L333.874 418.135L333.882 418.144L334.621 417.47ZM334.988 384.414L335.733 385.081L335.733 385.081L334.988 384.414ZM343.191 389.801L344.023 390.356L344.028 390.348L344.033 390.34L343.191 389.801ZM343.191 411.226L342.315 411.709L342.319 411.716L342.323 411.722L343.191 411.226ZM356.046 390.413L355.176 390.906L355.176 390.906L356.046 390.413ZM349.925 379.537C356.268 379.537 360.851 381.316 363.869 384.711L365.364 383.382C361.852 379.432 356.641 377.537 349.925 377.537V379.537ZM363.869 384.711C366.91 388.132 368.513 393.281 368.513 400.33H370.513C370.513 393.013 368.852 387.307 365.364 383.382L363.869 384.711ZM368.513 400.33C368.513 407.35 366.76 412.673 363.382 416.435L364.871 417.771C368.675 413.534 370.513 407.675 370.513 400.33H368.513ZM363.382 416.436C360.104 420.095 355.423 421.979 349.19 421.979V423.979C355.853 423.979 361.13 421.946 364.871 417.77L363.382 416.436ZM349.19 421.979C343.021 421.979 338.467 420.207 335.36 416.797L333.882 418.144C337.468 422.079 342.627 423.979 349.19 423.979V421.979ZM335.376 416.814C332.327 413.308 330.724 408.111 330.724 401.064H328.724C328.724 408.383 330.386 414.124 333.866 418.126L335.376 416.814ZM330.724 401.064C330.724 394.037 332.44 388.758 335.733 385.081L334.243 383.747C330.518 387.906 328.724 393.726 328.724 401.064H330.724ZM335.733 385.081C339.011 381.422 343.691 379.537 349.925 379.537V377.537C343.262 377.537 337.985 379.57 334.243 383.747L335.733 385.081ZM349.557 385.74C346.362 385.74 343.879 386.87 342.349 389.262L344.033 390.34C345.114 388.651 346.876 387.74 349.557 387.74V385.74ZM342.359 389.246C340.875 391.472 340.232 395.208 340.232 400.207H342.232C342.232 395.249 342.895 392.048 344.023 390.356L342.359 389.246ZM340.232 400.207C340.232 405.235 340.885 409.116 342.315 411.709L344.067 410.743C342.885 408.602 342.232 405.138 342.232 400.207H340.232ZM342.323 411.722C343.836 414.371 346.364 415.654 349.68 415.654V413.654C346.955 413.654 345.158 412.652 344.059 410.73L342.323 411.722ZM349.68 415.654C352.911 415.654 355.439 414.638 356.989 412.409L355.348 411.267C354.286 412.793 352.488 413.654 349.68 413.654V415.654ZM356.989 412.409C358.487 410.257 359.127 406.546 359.127 401.554H357.127C357.127 406.52 356.462 409.666 355.348 411.267L356.989 412.409ZM359.127 401.554C359.127 396.517 358.432 392.594 356.916 389.92L355.176 390.906C356.436 393.129 357.127 396.634 357.127 401.554H359.127ZM356.916 389.92C355.342 387.141 352.836 385.74 349.557 385.74V387.74C352.155 387.74 353.976 388.787 355.176 390.906L356.916 389.92ZM413.448 410.981L412.449 411.013L412.45 411.036L412.451 411.058L413.448 410.981ZM413.938 413.185L413.081 413.7L413.107 413.744L413.138 413.785L413.938 413.185ZM417.978 413.307L418.629 412.548L418.237 412.212L417.736 412.337L417.978 413.307ZM418.835 414.042L419.821 414.213L419.918 413.653L419.486 413.283L418.835 414.042ZM417.733 420.408L418.263 421.256L418.642 421.019L418.719 420.579L417.733 420.408ZM411 422.735L410.917 423.731L411.022 423.74L411.128 423.726L411 422.735ZM403.532 416.368L404.497 416.107L404.297 415.368H403.532V416.368ZM402.797 416.368V415.368H402.399L402.11 415.641L402.797 416.368ZM393.615 422.612V423.612H393.823L394.014 423.529L393.615 422.612ZM379.658 416.98L378.896 417.628L378.903 417.637L379.658 416.98ZM380.392 384.414L379.685 383.707L379.678 383.715L380.392 384.414ZM402.062 379.15L401.91 380.138L403.069 380.316L403.062 379.144L402.062 379.15ZM401.94 358.581L401.859 357.585L400.934 357.659L400.94 358.587L401.94 358.581ZM414.06 357.602L415.06 357.621L415.081 356.516L413.98 356.605L414.06 357.602ZM413.203 403.268L412.204 403.249L412.203 403.275L412.204 403.3L413.203 403.268ZM402.307 409.267L403.037 409.95L403.298 409.672L403.307 409.292L402.307 409.267ZM402.43 404.248L403.429 404.272L403.43 404.252L403.43 404.232L402.43 404.248ZM402.185 388.454L403.185 388.439L403.175 387.802L402.594 387.542L402.185 388.454ZM412.451 411.058C412.534 412.128 412.705 413.073 413.081 413.7L414.796 412.671C414.682 412.481 414.526 411.957 414.445 410.905L412.451 411.058ZM413.138 413.785C413.68 414.508 414.599 414.675 415.407 414.675V412.675C415.106 412.675 414.915 412.64 414.805 412.604C414.702 412.569 414.71 412.547 414.738 412.585L413.138 413.785ZM415.407 414.675C416.248 414.675 417.189 414.535 418.221 414.278L417.736 412.337C416.808 412.569 416.036 412.675 415.407 412.675V414.675ZM417.327 414.067L418.184 414.801L419.486 413.283L418.629 412.548L417.327 414.067ZM417.85 413.871L416.748 420.238L418.719 420.579L419.821 414.213L417.85 413.871ZM417.203 419.56C415.379 420.701 413.274 421.433 410.872 421.743L411.128 423.726C413.786 423.383 416.17 422.565 418.263 421.256L417.203 419.56ZM411.083 421.738C409.289 421.589 407.899 421.037 406.843 420.137C405.785 419.235 404.987 417.918 404.497 416.107L402.566 416.63C403.137 418.736 404.114 420.439 405.546 421.659C406.98 422.882 408.792 423.554 410.917 423.731L411.083 421.738ZM403.532 415.368H402.797V417.368H403.532V415.368ZM402.11 415.641C399.242 418.35 396.277 420.361 393.215 421.695L394.014 423.529C397.319 422.088 400.475 419.937 403.484 417.095L402.11 415.641ZM393.615 421.612C387.797 421.612 383.447 419.814 380.412 416.324L378.903 417.637C382.398 421.656 387.353 423.612 393.615 423.612V421.612ZM380.419 416.332C377.359 412.737 375.76 407.572 375.76 400.697H373.76C373.76 407.861 375.426 413.552 378.896 417.628L380.419 416.332ZM375.76 400.697C375.76 393.856 377.586 388.711 381.107 385.113L379.678 383.715C375.689 387.79 373.76 393.5 373.76 400.697H375.76ZM381.099 385.121C384.706 381.514 389.692 379.66 396.186 379.66V377.66C389.293 377.66 383.751 379.641 379.685 383.707L381.099 385.121ZM396.186 379.66C397.922 379.66 399.829 379.818 401.91 380.138L402.214 378.161C400.051 377.828 398.041 377.66 396.186 377.66V379.66ZM403.062 379.144L402.94 358.575L400.94 358.587L401.062 379.155L403.062 379.144ZM402.02 359.578L414.141 358.599L413.98 356.605L401.859 357.585L402.02 359.578ZM413.061 357.583L412.204 403.249L414.203 403.287L415.06 357.621L413.061 357.583ZM412.204 403.3L412.449 411.013L414.448 410.95L414.203 403.236L412.204 403.3ZM385.146 398.738C385.146 403.582 385.875 407.381 387.465 410C389.103 412.7 391.608 414.063 394.839 414.063V412.063C392.275 412.063 390.434 411.038 389.174 408.963C387.866 406.807 387.146 403.444 387.146 398.738H385.146ZM394.839 414.063C397.81 414.063 400.546 412.614 403.037 409.95L401.577 408.584C399.334 410.981 397.092 412.063 394.839 412.063V414.063ZM403.307 409.292L403.429 404.272L401.43 404.223L401.308 409.243L403.307 409.292ZM403.43 404.232L403.185 388.439L401.185 388.47L401.43 404.263L403.43 404.232ZM402.594 387.542C400.126 386.435 397.742 385.863 395.451 385.863V387.863C397.405 387.863 399.509 388.351 401.776 389.367L402.594 387.542ZM395.451 385.863C392.122 385.863 389.47 386.937 387.685 389.215C385.937 391.446 385.146 394.676 385.146 398.738H387.146C387.146 394.883 387.906 392.176 389.26 390.448C390.577 388.767 392.578 387.863 395.451 387.863V385.863ZM434.12 402.289L434.115 401.289L433.055 401.294L433.122 402.352L434.12 402.289ZM457.749 410.492L458.349 409.692L457.838 409.308L457.275 409.611L457.749 410.492ZM458.729 411.226L459.713 411.401L459.821 410.795L459.329 410.426L458.729 411.226ZM457.137 420.164L457.527 421.084L458.026 420.873L458.121 420.339L457.137 420.164ZM444.282 422.979V423.979H444.291L444.301 423.979L444.282 422.979ZM428.488 417.103L429.21 416.411L428.488 417.103ZM428.488 384.659L427.767 383.967L427.766 383.967L428.488 384.659ZM456.157 383.19L455.431 383.877L455.441 383.887L455.45 383.897L456.157 383.19ZM460.198 400.452L460.88 401.183L461.138 400.943L461.188 400.594L460.198 400.452ZM458.361 402.166L458.366 403.166L458.758 403.164L459.044 402.897L458.361 402.166ZM437.426 388.944L436.737 388.219L436.728 388.228L436.719 388.237L437.426 388.944ZM434.365 395.555L433.379 395.386L433.172 396.593L434.397 396.555L434.365 395.555ZM449.791 395.065L449.823 396.065L450.578 396.041L450.761 395.308L449.791 395.065ZM450.036 394.086L451.006 394.328L451.038 394.201L451.036 394.07L450.036 394.086ZM433.122 402.352C433.375 406.364 434.483 409.537 436.585 411.708C438.703 413.894 441.688 414.92 445.384 414.92V412.92C442.06 412.92 439.658 412.006 438.022 410.316C436.369 408.61 435.354 405.968 435.118 402.226L433.122 402.352ZM445.384 414.92C449.579 414.92 453.863 413.72 458.223 411.372L457.275 409.611C453.147 411.834 449.187 412.92 445.384 412.92V414.92ZM457.149 411.292L458.129 412.026L459.329 410.426L458.349 409.692L457.149 411.292ZM457.744 411.051L456.152 419.988L458.121 420.339L459.713 411.401L457.744 411.051ZM456.747 419.243C452.613 420.992 448.453 421.901 444.263 421.98L444.301 423.979C448.762 423.895 453.173 422.927 457.527 421.084L456.747 419.243ZM444.282 421.979C437.708 421.979 432.732 420.085 429.21 416.411L427.766 417.795C431.754 421.956 437.307 423.979 444.282 423.979V421.979ZM429.21 416.411C425.678 412.725 423.857 407.611 423.857 400.942H421.857C421.857 407.985 423.79 413.645 427.766 417.795L429.21 416.411ZM423.857 400.942C423.857 394.187 425.68 389.035 429.21 385.351L427.766 383.967C423.788 388.119 421.857 393.821 421.857 400.942H423.857ZM429.21 385.351C432.845 381.561 437.435 379.66 443.057 379.66V377.66C436.927 377.66 431.804 379.758 427.767 383.967L429.21 385.351ZM443.057 379.66C448.775 379.66 452.83 381.128 455.431 383.877L456.884 382.502C453.771 379.212 449.093 377.66 443.057 377.66V379.66ZM455.45 383.897C458.156 386.602 459.565 390.402 459.565 395.433H461.565C461.565 390.016 460.036 385.654 456.865 382.483L455.45 383.897ZM459.565 395.433C459.565 397.015 459.446 398.641 459.208 400.311L461.188 400.594C461.439 398.836 461.565 397.115 461.565 395.433H459.565ZM459.515 399.721L457.679 401.435L459.044 402.897L460.88 401.183L459.515 399.721ZM458.356 401.166L434.115 401.289L434.125 403.289L458.366 403.166L458.356 401.166ZM443.425 385.618C440.816 385.618 438.565 386.482 436.737 388.219L438.114 389.669C439.551 388.304 441.3 387.618 443.425 387.618V385.618ZM436.719 388.237C434.981 389.974 433.893 392.39 433.379 395.386L435.351 395.724C435.816 393.006 436.769 391.015 438.133 389.651L436.719 388.237ZM434.397 396.555L449.823 396.065L449.759 394.066L434.333 394.556L434.397 396.555ZM450.761 395.308L451.006 394.328L449.066 393.843L448.821 394.823L450.761 395.308ZM451.036 394.07C450.993 391.456 450.393 389.316 449.071 387.822C447.726 386.303 445.782 385.618 443.425 385.618V387.618C445.393 387.618 446.714 388.178 447.573 389.148C448.455 390.143 448.997 391.737 449.036 394.102L451.036 394.07ZM556.717 422V423H557.629L557.713 422.092L556.717 422ZM524.763 422L523.764 421.958L523.72 423H524.763V422ZM525.498 404.37L526.497 404.412L526.498 404.382L526.497 404.352L525.498 404.37ZM524.763 362.989V361.989H523.745L523.763 363.006L524.763 362.989ZM537.496 362.989L538.495 363.007L538.514 361.989H537.496V362.989ZM536.761 403.268L535.761 403.25L535.761 403.274L535.761 403.297L536.761 403.268ZM537.006 411.716L536.006 411.745L536.034 412.716H537.006V411.716ZM556.84 411.716L557.64 411.116L557.34 410.716H556.84V411.716ZM557.574 412.695L558.57 412.787L558.605 412.403L558.374 412.095L557.574 412.695ZM556.717 421H524.763V423H556.717V421ZM525.762 422.042L526.497 404.412L524.498 404.328L523.764 421.958L525.762 422.042ZM526.497 404.352L525.763 362.971L523.763 363.006L524.498 404.388L526.497 404.352ZM524.763 363.989H537.496V361.989H524.763V363.989ZM536.496 362.971L535.761 403.25L537.761 403.286L538.495 363.007L536.496 362.971ZM535.761 403.297L536.006 411.745L538.006 411.687L537.761 403.239L535.761 403.297ZM537.006 412.716H556.84V410.716H537.006V412.716ZM556.04 412.316L556.774 413.295L558.374 412.095L557.64 411.116L556.04 412.316ZM556.578 412.604L555.721 421.908L557.713 422.092L558.57 412.787L556.578 412.604ZM574.216 360.173L573.483 360.853L573.495 360.867L573.508 360.88L574.216 360.173ZM574.093 369.6L573.362 368.918L574.093 369.6ZM564.666 369.845L563.933 370.525L563.958 370.552L563.986 370.578L564.666 369.845ZM564.911 360.418L565.618 361.125L565.629 361.113L565.64 361.102L564.911 360.418ZM575.44 422V423H576.48L576.439 421.961L575.44 422ZM563.197 422L562.197 421.965L562.162 423H563.197V422ZM563.809 404.37L564.808 404.405L564.809 404.377L564.809 404.35L563.809 404.37ZM563.319 380.129L563.24 379.132L562.3 379.207L562.319 380.149L563.319 380.129ZM575.562 379.15L576.562 379.185L576.601 378.063L575.483 378.153L575.562 379.15ZM574.705 403.268L573.706 403.233L573.705 403.27L573.706 403.307L574.705 403.268ZM569.686 359.459C571.442 359.459 572.657 359.964 573.483 360.853L574.948 359.492C573.652 358.096 571.847 357.459 569.686 357.459V359.459ZM573.508 360.88C574.323 361.694 574.807 362.952 574.807 364.825H576.807C576.807 362.617 576.231 360.774 574.923 359.466L573.508 360.88ZM574.807 364.825C574.807 366.577 574.303 367.91 573.362 368.918L574.824 370.282C576.169 368.842 576.807 366.991 576.807 364.825H574.807ZM573.362 368.918C572.449 369.896 571.147 370.436 569.318 370.436V372.436C571.571 372.436 573.452 371.752 574.824 370.282L573.362 368.918ZM569.318 370.436C567.544 370.436 566.26 369.96 565.346 369.112L563.986 370.578C565.357 371.851 567.174 372.436 569.318 372.436V370.436ZM565.399 369.164C564.55 368.251 564.074 366.966 564.074 365.192H562.074C562.074 367.336 562.659 369.154 563.933 370.525L565.399 369.164ZM564.074 365.192C564.074 363.461 564.606 362.136 565.618 361.125L564.204 359.711C562.767 361.148 562.074 363.006 562.074 365.192H564.074ZM565.64 361.102C566.657 360.018 567.974 359.459 569.686 359.459V357.459C567.479 357.459 565.614 358.206 564.181 359.734L565.64 361.102ZM575.44 421H563.197V423H575.44V421ZM564.196 422.035L564.808 404.405L562.81 404.335L562.197 421.965L564.196 422.035ZM564.809 404.35L564.319 380.109L562.319 380.149L562.809 404.39L564.809 404.35ZM563.399 381.126L575.642 380.146L575.483 378.153L563.24 379.132L563.399 381.126ZM574.563 379.114L573.706 403.233L575.705 403.304L576.562 379.185L574.563 379.114ZM573.706 403.307L574.441 422.039L576.439 421.961L575.704 403.229L573.706 403.307ZM612.552 395.433L613.552 395.46L613.552 395.447V395.433H612.552ZM597.983 392.617L597.339 391.852L596.983 392.152V392.617H597.983ZM597.983 403.268H596.983V403.285L596.983 403.301L597.983 403.268ZM598.595 422V423H599.628L599.595 421.967L598.595 422ZM586.352 422L585.353 421.965L585.317 423H586.352V422ZM586.964 404.37L587.964 404.405L587.965 404.377L587.964 404.35L586.964 404.37ZM586.475 380.129L586.391 379.132L585.456 379.211L585.475 380.149L586.475 380.129ZM598.105 379.15H599.105V378.062L598.021 378.153L598.105 379.15ZM598.105 385.393H597.105V386.393H598.105V385.393ZM598.718 385.393V386.393H599.096L599.38 386.143L598.718 385.393ZM609.736 378.782V377.782H609.571L609.414 377.836L609.736 378.782ZM620.265 381.965L619.598 382.71L619.604 382.716L619.61 382.721L620.265 381.965ZM623.816 391.025L622.816 391.004L622.816 391.005L623.816 391.025ZM623.571 403.268L622.571 403.248L622.571 403.271L622.571 403.294L623.571 403.268ZM624.061 422V423H625.087L625.06 421.974L624.061 422ZM611.818 422L610.818 421.972L610.79 423H611.818V422ZM613.552 395.433C613.552 393.069 613.051 391.11 611.874 389.733C610.671 388.326 608.915 387.699 606.798 387.699V389.699C608.517 389.699 609.638 390.195 610.353 391.032C611.095 391.9 611.552 393.307 611.552 395.433H613.552ZM606.798 387.699C603.699 387.699 600.54 389.156 597.339 391.852L598.627 393.382C601.629 390.853 604.346 389.699 606.798 389.699V387.699ZM596.983 392.617V403.268H598.983V392.617H596.983ZM596.983 403.301L597.596 422.033L599.595 421.967L598.982 403.236L596.983 403.301ZM598.595 421H586.352V423H598.595V421ZM587.352 422.035L587.964 404.405L585.965 404.335L585.353 421.965L587.352 422.035ZM587.964 404.35L587.474 380.109L585.475 380.149L585.964 404.39L587.964 404.35ZM586.558 381.125L598.189 380.146L598.021 378.153L586.391 379.132L586.558 381.125ZM597.105 379.15V385.393H599.105V379.15H597.105ZM598.105 386.393H598.718V384.393H598.105V386.393ZM599.38 386.143C602.806 383.115 606.366 380.986 610.058 379.729L609.414 377.836C605.435 379.19 601.649 381.468 598.055 384.644L599.38 386.143ZM609.736 379.782C614.254 379.782 617.483 380.814 619.598 382.71L620.933 381.221C618.313 378.872 614.523 377.782 609.736 377.782V379.782ZM619.61 382.721C621.787 384.608 622.893 387.315 622.816 391.004L624.815 391.046C624.902 386.9 623.641 383.567 620.92 381.21L619.61 382.721ZM622.816 391.005L622.571 403.248L624.571 403.288L624.815 391.045L622.816 391.005ZM622.571 403.294L623.061 422.026L625.06 421.974L624.57 403.242L622.571 403.294ZM624.061 421H611.818V423H624.061V421ZM612.817 422.028L613.552 395.46L611.553 395.405L610.818 421.972L612.817 422.028ZM675.718 385.149L675.961 386.119L676.718 385.929V385.149H675.718ZM668.617 386.495L668.461 385.508L668.028 385.576L667.785 385.941L668.617 386.495ZM668.372 386.863L667.54 386.308L667.218 386.791L667.478 387.31L668.372 386.863ZM664.699 404.003L665.336 404.774L665.338 404.773L664.699 404.003ZM645.968 407.553L646.146 406.569L645.631 406.476L645.26 406.846L645.968 407.553ZM646.702 412.328L646.369 413.271L646.402 413.282L646.435 413.292L646.702 412.328ZM654.048 413.552L653.93 414.545L653.93 414.545L654.048 413.552ZM662.74 415.144L662.475 416.108L662.49 416.112L662.506 416.116L662.74 415.144ZM668.862 418.327L668.191 419.069L668.2 419.076L668.208 419.084L668.862 418.327ZM668.862 432.529L668.076 431.911L668.068 431.921L668.862 432.529ZM637.765 436.447L637.161 437.244L637.161 437.244L637.765 436.447ZM633.235 427.509L632.423 426.926L632.235 427.187V427.509H633.235ZM640.948 420.653L641.462 421.511L641.948 421.219V420.653H640.948ZM640.948 420.164H641.948V419.468L641.295 419.226L640.948 420.164ZM634.337 411.838L633.569 411.198L633.337 411.476V411.838H634.337ZM640.581 406.207L641.159 407.022L641.581 406.723V406.207H640.581ZM640.581 405.839H641.581V405.246L641.06 404.961L640.581 405.839ZM638.744 382.822L639.381 383.594L639.383 383.592L638.744 382.822ZM661.271 380.374L660.871 381.29L661.152 381.413L661.453 381.357L661.271 380.374ZM674.739 376.701L675.397 375.948L674.955 375.562L674.402 375.759L674.739 376.701ZM675.718 377.558H676.718V377.104L676.377 376.805L675.718 377.558ZM651.599 400.697L651.615 399.697L651.599 399.697L651.582 399.697L651.599 400.697ZM658.7 423.592L659.042 422.652L659.023 422.645L659.004 422.639L658.7 423.592ZM652.089 422.245L652.213 421.253L652.199 421.251L652.185 421.249L652.089 422.245ZM647.559 421.633L647.875 420.684L647.404 420.527L646.994 420.808L647.559 421.633ZM645.478 431.305L646.033 430.473L646.033 430.473L645.478 431.305ZM658.7 431.182L658.221 430.304L658.197 430.317L658.174 430.332L658.7 431.182ZM675.476 384.178C673.886 384.576 671.554 385.019 668.461 385.508L668.773 387.483C671.883 386.992 674.285 386.538 675.961 386.119L675.476 384.178ZM667.785 385.941L667.54 386.308L669.204 387.417L669.449 387.05L667.785 385.941ZM667.478 387.31C668.297 388.948 668.719 390.832 668.719 392.984H670.719C670.719 390.565 670.243 388.368 669.267 386.415L667.478 387.31ZM668.719 392.984C668.719 397.275 667.165 400.659 664.061 403.233L665.338 404.773C668.926 401.797 670.719 397.835 670.719 392.984H668.719ZM664.063 403.231C661.031 405.732 656.795 407.043 651.232 407.043V409.043C657.096 409.043 661.838 407.66 665.336 404.774L664.063 403.231ZM651.232 407.043C649.582 407.043 647.887 406.886 646.146 406.569L645.789 408.537C647.64 408.874 649.454 409.043 651.232 409.043V407.043ZM645.26 406.846C644.302 407.804 643.621 408.865 643.621 410.002H645.621C645.621 409.67 645.837 409.098 646.675 408.26L645.26 406.846ZM643.621 410.002C643.621 410.773 643.881 411.471 644.396 412.046C644.892 412.6 645.579 412.992 646.369 413.271L647.035 411.385C646.438 411.174 646.084 410.934 645.886 410.712C645.707 410.512 645.621 410.292 645.621 410.002H643.621ZM646.435 413.292C647.983 413.722 650.498 414.137 653.93 414.545L654.166 412.559C650.742 412.152 648.359 411.75 646.97 411.364L646.435 413.292ZM653.93 414.545C657.326 414.95 660.171 415.472 662.475 416.108L663.006 414.18C660.576 413.509 657.626 412.971 654.166 412.559L653.93 414.545ZM662.506 416.116C664.719 416.65 666.608 417.636 668.191 419.069L669.533 417.586C667.688 415.917 665.496 414.78 662.975 414.172L662.506 416.116ZM668.208 419.084C669.746 420.412 670.555 422.277 670.555 424.816H672.555C672.555 421.805 671.569 419.344 669.516 417.57L668.208 419.084ZM670.555 424.816C670.555 427.444 669.735 429.799 668.076 431.911L669.648 433.147C671.58 430.689 672.555 427.901 672.555 424.816H670.555ZM668.068 431.921C664.566 436.489 658.837 438.875 650.62 438.875V440.875C659.217 440.875 665.649 438.364 669.656 433.137L668.068 431.921ZM650.62 438.875C645.19 438.875 641.15 437.755 638.368 435.649L637.161 437.244C640.419 439.71 644.949 440.875 650.62 440.875V438.875ZM638.368 435.649C635.589 433.546 634.235 430.858 634.235 427.509H632.235C632.235 431.507 633.901 434.777 637.161 437.244L638.368 435.649ZM634.047 428.093C635.831 425.61 638.293 423.412 641.462 421.511L640.433 419.796C637.073 421.812 634.393 424.185 632.423 426.926L634.047 428.093ZM641.948 420.653V420.164H639.948V420.653H641.948ZM641.295 419.226C639.209 418.453 637.73 417.441 636.773 416.236C635.826 415.044 635.337 413.597 635.337 411.838H633.337C633.337 413.998 633.949 415.897 635.206 417.48C636.453 419.05 638.28 420.242 640.601 421.101L641.295 419.226ZM635.105 412.478C636.672 410.598 638.685 408.778 641.159 407.022L640.002 405.391C637.416 407.226 635.267 409.16 633.569 411.198L635.105 412.478ZM641.581 406.207V405.839H639.581V406.207H641.581ZM641.06 404.961C638.945 403.808 637.405 402.374 636.389 400.674C635.373 398.975 634.847 396.954 634.847 394.576H632.847C632.847 397.258 633.443 399.645 634.672 401.7C635.901 403.755 637.727 405.422 640.102 406.717L641.06 404.961ZM634.847 394.576C634.847 389.662 636.396 386.056 639.381 383.594L638.108 382.051C634.563 384.975 632.847 389.206 632.847 394.576H634.847ZM639.383 383.592C642.5 381.007 646.78 379.66 652.334 379.66V377.66C646.461 377.66 641.681 379.088 638.106 382.053L639.383 383.592ZM652.334 379.66C655.566 379.66 658.405 380.211 660.871 381.29L661.672 379.458C658.914 378.251 655.795 377.66 652.334 377.66V379.66ZM661.453 381.357C665.917 380.53 670.458 379.292 675.075 377.643L674.402 375.759C669.878 377.375 665.44 378.585 661.089 379.391L661.453 381.357ZM674.08 377.453L675.06 378.31L676.377 376.805L675.397 375.948L674.08 377.453ZM674.718 377.558V385.149H676.718V377.558H674.718ZM660.19 393.229C660.19 390.731 659.518 388.678 658.006 387.264C656.506 385.863 654.349 385.25 651.722 385.25V387.25C654.073 387.25 655.651 387.801 656.64 388.726C657.617 389.638 658.19 391.075 658.19 393.229H660.19ZM651.722 385.25C649.127 385.25 646.996 385.877 645.517 387.307C644.032 388.742 643.376 390.821 643.376 393.351H645.376C645.376 391.147 645.944 389.676 646.907 388.745C647.877 387.807 649.419 387.25 651.722 387.25V385.25ZM643.376 393.351C643.376 395.985 644.012 398.142 645.469 399.623C646.932 401.111 649.047 401.741 651.616 401.697L651.582 399.697C649.336 399.735 647.84 399.182 646.895 398.221C645.944 397.253 645.376 395.696 645.376 393.351H643.376ZM651.583 401.697C654.266 401.74 656.469 401.105 657.994 399.604C659.519 398.104 660.19 395.912 660.19 393.229H658.19C658.19 395.606 657.596 397.19 656.591 398.178C655.586 399.167 653.993 399.736 651.615 399.697L651.583 401.697ZM662.394 427.142C662.394 426.102 662.118 425.156 661.517 424.365C660.923 423.581 660.069 423.025 659.042 422.652L658.359 424.531C659.127 424.811 659.62 425.173 659.924 425.573C660.221 425.965 660.394 426.468 660.394 427.142H662.394ZM659.004 422.639C657.132 422.043 654.864 421.584 652.213 421.253L651.965 423.237C654.538 423.559 656.678 423.997 658.397 424.544L659.004 422.639ZM652.185 421.249C650.926 421.128 649.93 421.017 649.193 420.917C648.423 420.813 648.017 420.731 647.875 420.684L647.243 422.581C647.592 422.698 648.185 422.799 648.925 422.899C649.698 423.004 650.722 423.117 651.993 423.24L652.185 421.249ZM646.994 420.808C645.518 421.82 644.356 422.836 643.556 423.865C642.754 424.897 642.274 425.995 642.274 427.142H644.274C644.274 426.575 644.509 425.898 645.135 425.093C645.763 424.286 646.744 423.404 648.125 422.457L646.994 420.808ZM642.274 427.142C642.274 429.265 643.17 430.968 644.923 432.137L646.033 430.473C644.847 429.682 644.274 428.61 644.274 427.142H642.274ZM644.923 432.137C646.626 433.272 648.976 433.774 651.844 433.774V431.774C649.163 431.774 647.268 431.296 646.033 430.473L644.923 432.137ZM651.844 433.774C654.813 433.774 657.302 433.224 659.227 432.032L658.174 430.332C656.671 431.262 654.589 431.774 651.844 431.774V433.774ZM659.179 432.06C661.222 430.946 662.394 429.299 662.394 427.142H660.394C660.394 428.413 659.77 429.46 658.221 430.304L659.179 432.06ZM712.457 384.047L713.204 383.382L713.204 383.382L712.457 384.047ZM711.967 417.103L711.223 416.435L711.223 416.436L711.967 417.103ZM682.462 417.47L681.707 418.126L681.715 418.135L681.723 418.144L682.462 417.47ZM682.829 384.414L683.574 385.081L683.574 385.081L682.829 384.414ZM691.032 389.801L691.864 390.356L691.869 390.348L691.874 390.34L691.032 389.801ZM691.032 411.226L690.156 411.709L690.16 411.716L690.164 411.722L691.032 411.226ZM703.887 390.413L703.017 390.906L703.017 390.906L703.887 390.413ZM697.765 379.537C704.108 379.537 708.692 381.316 711.71 384.711L713.204 383.382C709.693 379.432 704.482 377.537 697.765 377.537V379.537ZM711.71 384.711C714.751 388.132 716.354 393.281 716.354 400.33H718.354C718.354 393.013 716.693 387.307 713.204 383.382L711.71 384.711ZM716.354 400.33C716.354 407.35 714.601 412.673 711.223 416.435L712.711 417.771C716.516 413.534 718.354 407.675 718.354 400.33H716.354ZM711.223 416.436C707.944 420.095 703.264 421.979 697.031 421.979V423.979C703.694 423.979 708.971 421.946 712.712 417.77L711.223 416.436ZM697.031 421.979C690.862 421.979 686.308 420.207 683.201 416.797L681.723 418.144C685.309 422.079 690.467 423.979 697.031 423.979V421.979ZM683.216 416.814C680.167 413.308 678.565 408.111 678.565 401.064H676.565C676.565 408.383 678.227 414.124 681.707 418.126L683.216 416.814ZM678.565 401.064C678.565 394.037 680.28 388.758 683.574 385.081L682.084 383.747C678.358 387.906 676.565 393.726 676.565 401.064H678.565ZM683.574 385.081C686.852 381.422 691.532 379.537 697.765 379.537V377.537C691.103 377.537 685.825 379.57 682.084 383.747L683.574 385.081ZM697.398 385.74C694.203 385.74 691.72 386.87 690.19 389.262L691.874 390.34C692.955 388.651 694.717 387.74 697.398 387.74V385.74ZM690.2 389.246C688.716 391.472 688.073 395.208 688.073 400.207H690.073C690.073 395.249 690.736 392.048 691.864 390.356L690.2 389.246ZM688.073 400.207C688.073 405.235 688.726 409.116 690.156 411.709L691.907 410.743C690.726 408.602 690.073 405.138 690.073 400.207H688.073ZM690.164 411.722C691.677 414.371 694.205 415.654 697.521 415.654V413.654C694.796 413.654 692.999 412.652 691.9 410.73L690.164 411.722ZM697.521 415.654C700.752 415.654 703.28 414.638 704.83 412.409L703.189 411.267C702.127 412.793 700.329 413.654 697.521 413.654V415.654ZM704.83 412.409C706.328 410.257 706.968 406.546 706.968 401.554H704.968C704.968 406.52 704.303 409.666 703.189 411.267L704.83 412.409ZM706.968 401.554C706.968 396.517 706.272 392.594 704.757 389.92L703.017 390.906C704.277 393.129 704.968 396.634 704.968 401.554H706.968ZM704.757 389.92C703.182 387.141 700.677 385.74 697.398 385.74V387.74C699.996 387.74 701.816 388.787 703.017 390.906L704.757 389.92ZM742.779 432.529V433.529H743.548L743.745 432.785L742.779 432.529ZM734.331 432.529L733.531 433.129L733.831 433.529H734.331V432.529ZM733.596 431.55L732.629 431.296L732.507 431.763L732.796 432.15L733.596 431.55ZM752.451 359.561V358.561H751.679L751.483 359.307L752.451 359.561ZM760.776 359.561L761.557 358.936L761.256 358.561H760.776V359.561ZM761.755 360.785L762.722 361.041L762.851 360.554L762.536 360.16L761.755 360.785ZM742.779 431.529H734.331V433.529H742.779V431.529ZM735.131 431.929L734.396 430.95L732.796 432.15L733.531 433.129L735.131 431.929ZM734.564 431.803L753.418 359.814L751.483 359.307L732.629 431.296L734.564 431.803ZM752.451 360.561H760.776V358.561H752.451V360.561ZM759.995 360.185L760.974 361.41L762.536 360.16L761.557 358.936L759.995 360.185ZM760.788 360.529L741.812 432.273L743.745 432.785L762.722 361.041L760.788 360.529ZM800.58 393.229H801.58V392.926L801.412 392.674L800.58 393.229ZM800.58 403.146L800.936 404.08L801.58 403.835V403.146H800.58ZM766.177 416.246L765.563 417.035L766.007 417.38L766.533 417.18L766.177 416.246ZM765.075 415.389L764.106 415.635L764.191 415.968L764.461 416.178L765.075 415.389ZM763.361 408.655L763.016 407.716L762.17 408.028L762.392 408.902L763.361 408.655ZM792.01 398.126L792.355 399.065L793.01 398.824V398.126H792.01ZM792.01 397.514H793.01V396.823L792.363 396.578L792.01 397.514ZM763.484 386.74L762.636 387.27L762.815 387.556L763.13 387.676L763.484 386.74ZM762.872 385.761L761.939 385.401L761.759 385.867L762.024 386.291L762.872 385.761ZM765.565 378.782L765.928 377.85L764.993 377.487L764.632 378.422L765.565 378.782ZM799.845 392.127L800.678 391.572L800.502 391.31L800.208 391.195L799.845 392.127ZM799.58 393.229V403.146H801.58V393.229H799.58ZM800.224 402.211L765.821 415.311L766.533 417.18L800.936 404.08L800.224 402.211ZM766.791 415.456L765.689 414.599L764.461 416.178L765.563 417.035L766.791 415.456ZM766.044 415.142L764.33 408.408L762.392 408.902L764.106 415.635L766.044 415.142ZM763.706 409.594L792.355 399.065L791.665 397.188L763.016 407.716L763.706 409.594ZM793.01 398.126V397.514H791.01V398.126H793.01ZM792.363 396.578L763.837 385.805L763.13 387.676L791.657 398.449L792.363 396.578ZM764.332 386.21L763.72 385.231L762.024 386.291L762.636 387.27L764.332 386.21ZM763.805 386.121L766.498 379.142L764.632 378.422L761.939 385.401L763.805 386.121ZM765.202 379.714L799.483 393.059L800.208 391.195L765.928 377.85L765.202 379.714ZM799.013 392.682L799.748 393.784L801.412 392.674L800.678 391.572L799.013 392.682Z" fill="black"/>
</g>
<path d="M117.17 191.34L171.811 357.591C190.033 391.075 282.649 392.872 383.083 359.863C483.516 326.854 556.094 270.764 550.899 232.998L551.813 232.698L497.172 66.4467L117.17 191.34Z" fill="#37454D"/>
<path d="M479.359 72.301L534 238.552C539.397 276.252 469.301 329.085 373.67 362.391C376.749 361.432 379.912 360.668 383.012 359.65C483.445 326.641 557.002 270.466 551.812 232.698L497.172 66.4467L479.359 72.301Z" fill="#222627"/>
<path d="M594.124 41.1609L596.581 48.6363L317.731 102.594C307.112 103.932 292.654 108.684 283.317 113.904L32.2145 233.11L32.0096 232.487L14.197 238.341L15.7504 243.067L16.0314 243.922L16.8959 246.553C17.2725 247.698 21.1641 247.709 24.5772 247.745L268.166 241.495C278.876 241.633 295.187 237.055 304.265 231.387L604.114 55.5223C607.217 53.5747 610.636 51.3854 610.31 50.3938L609.779 48.7788L609.439 47.7457L607.945 43.1975L594.124 41.1609Z" fill="#131718"/>
<path d="M606.405 38.4931C606.091 37.5371 602.03 37.8916 598.328 38.3583L315.745 92.9897C305.124 94.3226 288.665 99.732 279.325 104.96L19.1151 228.725C15.9315 230.508 12.3566 232.742 12.7098 233.817L14.1968 238.341C14.5735 239.487 18.1235 238.458 21.5386 238.5L265.128 232.25C275.837 232.388 292.15 227.816 301.228 222.148C301.228 222.148 608.272 44.195 607.948 43.2094L606.405 38.4931Z" fill="#37454D"/>
<path d="M471.934 339.957C466.834 341.633 461.67 338.752 459.99 333.639L405.958 169.241L290.572 168.526C285.196 168.503 281.207 164.012 281.228 158.63C281.248 153.248 285.813 148.84 291.177 148.887L413.331 149.719C417.529 149.741 426.314 151.11 427.622 155.088L484.214 327.276C485.892 332.383 477.035 338.281 471.934 339.957Z" fill="#FFD464"/>
<path d="M501.945 341.192C501.945 341.192 496.698 325.226 495.615 321.931C491.419 309.165 477.03 302.414 464.264 306.61C451.498 310.805 443.917 324.771 448.115 337.542C449.198 340.838 454.445 356.804 454.445 356.804L501.945 341.192Z" fill="#E16B5A"/>
<path d="M501.945 341.192L454.444 356.804L472.007 410.241L519.508 394.63L501.945 341.192Z" fill="#FFD464"/>
<path d="M466.319 352.901L460.382 354.852L477.945 408.29L483.882 406.339L466.319 352.901Z" fill="#FFE399"/>
<path d="M478.194 348.998L472.257 350.949L489.82 404.387L495.757 402.436L478.194 348.998Z" fill="#FFE399"/>
<path d="M490.069 345.095L484.132 347.046L501.695 400.484L507.632 398.533L490.069 345.095Z" fill="#FFE399"/>
<defs>
<filter id="filter0_d_198_322" x="224.244" y="357.602" width="580.336" height="90.2729" filterUnits="userSpaceOnUse" color-interpolation-filters="sRGB">
<feFlood flood-opacity="0" result="BackgroundImageFix"/>
<feColorMatrix in="SourceAlpha" type="matrix" values="0 0 0 0 0 0 0 0 0 0 0 0 0 0 0 0 0 0 127 0" result="hardAlpha"/>
<feOffset dy="4"/>
<feGaussianBlur stdDeviation="2"/>
<feComposite in2="hardAlpha" operator="out"/>
<feColorMatrix type="matrix" values="0 0 0 0 0 0 0 0 0 0 0 0 0 0 0 0 0 0 0.67 0"/>
<feBlend mode="normal" in2="BackgroundImageFix" result="effect1_dropShadow_198_322"/>
<feBlend mode="normal" in="SourceGraphic" in2="effect1_dropShadow_198_322" result="shape"/>
</filter>
</defs>
</svg>
